<svg xmlns="http://www.w3.org/2000/svg" version="1.1" xmlns:xlink="http://www.w3.org/1999/xlink" viewBox="0 0 200 200"><rect width="200" height="200" fill="url('#gradient')"></rect><defs><linearGradient id="gradient" gradientTransform="rotate(240 0.5 0.5)"><stop offset="0%" stop-color="#ff001f"></stop><stop offset="100%" stop-color="#000000"></stop></linearGradient></defs><g><g fill="#fcfb9b" transform="matrix(4.626506024096385,0,0,4.626506024096385,9.458961824336683,134.72180920911123)" stroke="#000000" stroke-width="0.55"><path d="M4.95 0L1.65 0L1.65-8.28L0.12-8.28L0.12-10.57L1.65-10.57L1.65-11.41Q1.65-13.21 2.71-14.21Q3.78-15.21 5.70-15.21L5.70-15.21Q6.41-15.21 7.25-15L7.25-15L7.26-12.58Q6.95-12.67 6.45-12.67L6.45-12.67Q4.95-12.67 4.95-11.38L4.95-11.38L4.95-10.57L7.01-10.57L7.01-8.28L4.95-8.28L4.95 0ZM17.28-8.30L17.28-5.66L11.75-5.66L11.75 0L8.32 0L8.32-14.22L17.83-14.22L17.83-11.57L11.75-11.57L11.75-8.30L17.28-8.30ZM24.01 0.20L24.01 0.20Q21.58 0.20 20.08-1.25Q18.57-2.71 18.57-5.03L18.57-5.03L18.57-5.30Q18.57-6.92 19.17-8.16Q19.78-9.40 20.93-10.08Q22.08-10.76 23.66-10.76L23.66-10.76Q25.89-10.76 27.18-9.38Q28.47-8.00 28.47-5.53L28.47-5.53L28.47-4.25L21.92-4.25Q22.10-3.36 22.70-2.85Q23.29-2.34 24.24-2.34L24.24-2.34Q25.80-2.34 26.68-3.44L26.68-3.44L28.18-1.66Q27.57-0.81 26.44-0.31Q25.31 0.20 24.01 0.20ZM23.64-8.22L23.64-8.22Q22.20-8.22 21.92-6.31L21.92-6.31L25.24-6.31L25.24-6.56Q25.26-7.35 24.84-7.79Q24.42-8.22 23.64-8.22ZM35.61-4.46L35.61-14.22L39.02-14.22L39.02-4.46Q39.02-3.11 38.39-2.04Q37.76-0.98 36.64-0.39Q35.51 0.20 34.12 0.20L34.12 0.20Q31.80 0.20 30.51-0.98Q29.22-2.15 29.22-4.30L29.22-4.30L32.66-4.30Q32.66-3.32 32.99-2.88Q33.33-2.44 34.12-2.44L34.12-2.44Q34.83-2.44 35.22-2.97Q35.61-3.51 35.61-4.46L35.61-4.46Z"></path></g></g></svg>